HIERARCHY
ROOT hip
{
  OFFSET 0 0 0
  CHANNELS 6 Xposition Yposition Zposition Zrotation Yrotation Xrotation
  JOINT abdomen
  {
    OFFSET 0 20.6881 -0.73152
    CHANNELS 3 Zrotation Xrotation Yrotation
    JOINT chest
    {
      OFFSET 0 11.7043 -0.48768
      CHANNELS 3 Zrotation Xrotation Yrotation
      JOINT neck
      {
        OFFSET 0 22.1894 -2.19456
        CHANNELS 3 Zrotation Xrotation Yrotation
        JOINT head
        {
          OFFSET -0.24384 7.07133 1.2192
          CHANNELS 3 Zrotation Xrotation Yrotation
          JOINT leftEye
          {
            OFFSET 4.14528 8.04674 8.04672
            CHANNELS 3 Zrotation Xrotation Yrotation
            End Site
            {
              OFFSET 1 0 0
            }
          }
          JOINT rightEye
          {
            OFFSET -3.6576 8.04674 8.04672
            CHANNELS 3 Zrotation Xrotation Yrotation
            End Site
            {
              OFFSET 1 0 0
            }
          }
        }
      }
      JOINT rCollar
      {
        OFFSET -2.68224 19.2634 -4.8768
        CHANNELS 3 Zrotation Xrotation Yrotation
        JOINT rShldr
        {
          OFFSET -8.77824 -1.95073 1.46304
          CHANNELS 3 Zrotation Xrotation Yrotation
          JOINT rForeArm
          {
            OFFSET -28.1742 -1.7115 0.48768
            CHANNELS 3 Zrotation Xrotation Yrotation
            JOINT rHand
            {
              OFFSET -22.5879 0.773209 7.07136
              CHANNELS 3 Zrotation Xrotation Yrotation
              JOINT rThumb1
              {
                OFFSET -1.2192 -0.487915 3.41376
                CHANNELS 3 Zrotation Xrotation Yrotation
                JOINT rThumb2
                {
                  OFFSET -3.37035 -0.52449 3.41376
                  CHANNELS 3 Zrotation Xrotation Yrotation
                  End Site
                  {
                    OFFSET -1.78271 -1.18214 1.43049
                  }
                }
              }
              JOINT rIndex1
              {
                OFFSET -7.75947 0.938293 5.60832
                CHANNELS 3 Zrotation Xrotation Yrotation
                JOINT rIndex2
                {
                  OFFSET -2.54057 -0.884171 1.56538
                  CHANNELS 3 Zrotation Xrotation Yrotation
                  End Site
                  {
                    OFFSET -1.62519 -0.234802 1.16502
                  }
                }
              }
              JOINT rMid1
              {
                OFFSET -8.24714 1.18213 3.41376
                CHANNELS 3 Zrotation Xrotation Yrotation
                JOINT rMid2
                {
                  OFFSET -3.10165 -0.590103 1.0647
                  CHANNELS 3 Zrotation Xrotation Yrotation
                  End Site
                  {
                    OFFSET -2.48547 -0.328903 0.83742
                  }
                }
              }
              JOINT rRing1
              {
                OFFSET -8.82822 0.546677 1.51678
                CHANNELS 3 Zrotation Xrotation Yrotation
                JOINT rRing2
                {
                  OFFSET -2.60934 -0.819778 -0.0198488
                  CHANNELS 3 Zrotation Xrotation Yrotation
                  End Site
                  {
                    OFFSET -2.33842 -0.294052 0.168128
                  }
                }
              }
              JOINT rPinky1
              {
                OFFSET -8.27202 -0.0477905 -0.4584
                CHANNELS 3 Zrotation Xrotation Yrotation
                JOINT rPinky2
                {
                  OFFSET -1.82734 -0.647385 -0.700984
                  CHANNELS 3 Zrotation Xrotation Yrotation
                  End Site
                  {
                    OFFSET -1.69225 -0.51767 -0.607171
                  }
                }
              }
            }
          }
        }
      }
      JOINT lCollar
      {
        OFFSET 2.68224 19.2634 -4.8768
        CHANNELS 3 Zrotation Xrotation Yrotation
        JOINT lShldr
        {
          OFFSET 8.77824 -1.95073 1.46304
          CHANNELS 3 Zrotation Xrotation Yrotation
          JOINT lForeArm
          {
            OFFSET 28.1742 -1.7115 0.48768
            CHANNELS 3 Zrotation Xrotation Yrotation
            JOINT lHand
            {
              OFFSET 22.5879 0.773209 7.07136
              CHANNELS 3 Zrotation Xrotation Yrotation
              JOINT lThumb1
              {
                OFFSET 1.2192 -0.487915 3.41376
                CHANNELS 3 Zrotation Xrotation Yrotation
                JOINT lThumb2
                {
                  OFFSET 3.37035 -0.52449 3.41376
                  CHANNELS 3 Zrotation Xrotation Yrotation
                  End Site
                  {
                    OFFSET 1.78271 -1.18214 1.43049
                  }
                }
              }
              JOINT lIndex1
              {
                OFFSET 7.75947 0.938293 5.60832
                CHANNELS 3 Zrotation Xrotation Yrotation
                JOINT lIndex2
                {
                  OFFSET 2.54057 -0.884171 1.56538
                  CHANNELS 3 Zrotation Xrotation Yrotation
                  End Site
                  {
                    OFFSET 1.62519 -0.234802 1.16502
                  }
                }
              }
              JOINT lMid1
              {
                OFFSET 8.24714 1.18213 3.41376
                CHANNELS 3 Zrotation Xrotation Yrotation
                JOINT lMid2
                {
                  OFFSET 3.10165 -0.590103 1.0647
                  CHANNELS 3 Zrotation Xrotation Yrotation
                  End Site
                  {
                    OFFSET 2.48547 -0.328903 0.83742
                  }
                }
              }
              JOINT lRing1
              {
                OFFSET 8.82822 0.546677 1.51678
                CHANNELS 3 Zrotation Xrotation Yrotation
                JOINT lRing2
                {
                  OFFSET 2.60934 -0.819778 -0.0198488
                  CHANNELS 3 Zrotation Xrotation Yrotation
                  End Site
                  {
                    OFFSET 2.33842 -0.294052 0.168128
                  }
                }
              }
              JOINT lPinky1
              {
                OFFSET 8.27202 -0.0477905 -0.4584
                CHANNELS 3 Zrotation Xrotation Yrotation
                JOINT lPinky2
                {
                  OFFSET 1.82734 -0.647385 -0.700984
                  CHANNELS 3 Zrotation Xrotation Yrotation
                  End Site
                  {
                    OFFSET 1.69225 -0.51767 -0.607171
                  }
                }
              }
            }
          }
        }
      }
    }
  }
  JOINT rButtock
  {
    OFFSET -8.77824 4.35084 1.2192
    CHANNELS 3 Zrotation Xrotation Yrotation
    JOINT rThigh
    {
      OFFSET 0 -1.70687 -2.19456
      CHANNELS 3 Zrotation Xrotation Yrotation
      JOINT rShin
      {
        OFFSET 0 -36.8199 0.73152
        CHANNELS 3 Zrotation Xrotation Yrotation
        JOINT rFoot
        {
          OFFSET 0.73152 -45.1104 -5.12064
          CHANNELS 3 Zrotation Xrotation Yrotation
          End Site
          {
            OFFSET -1.1221 -3.69964 12.103
          }
        }
      }
    }
  }
  JOINT lButtock
  {
    OFFSET 8.77824 4.35084 1.2192
    CHANNELS 3 Zrotation Xrotation Yrotation
    JOINT lThigh
    {
      OFFSET 0 -1.70687 -2.19456
      CHANNELS 3 Zrotation Xrotation Yrotation
      JOINT lShin
      {
        OFFSET 0 -36.8199 0.73152
        CHANNELS 3 Zrotation Xrotation Yrotation
        JOINT lFoot
        {
          OFFSET -0.73152 -45.1104 -5.12064
          CHANNELS 3 Zrotation Xrotation Yrotation
          End Site
          {
            OFFSET 1.1221 -3.69964 12.103
          }
        }
      }
    }
  }
}
MOTION
Frames:	6
Frame Time:	0.00833333
281.225 84.8429 -32.3806 0.0 0.0 0.0 -0.257806 -0.0014994 -0.00737509 -0.0711635 -0.00234959 -0.0123289 1.00639e-14 0.0 8.69683e-17 3.01407e-14 3.18055e-15 2.57799e-16 -0.0 0.0 0.0 -0.0 0.0 0.0 4.96852e-15 1.20358e-17 1.49089e-16 1.08142e-13 1.86361e-17 2.38542e-15 1.82315e-12 -5.35128e-13 -6.36111e-15 2.07964e-11 5.8803e-13 1.90833e-13 4.90648e-11 1.17004e-13 4.16653e-13 8.47236e-11 2.06736e-13 7.1483e-13 4.90708e-11 1.19668e-13 4.10292e-13 7.73091 5.47488 0.417314 4.90658e-11 1.17482e-13 4.19833e-13 2.90554 0.965183 0.102902 4.90706e-11 1.17482e-13 4.16653e-13 10.2786 0.731801 0.0259123 4.90605e-11 1.16488e-13 4.23014e-13 2.22167 -0.733487 -0.20892 4.97104e-15 1.16475e-17 -4.96962e-17 1.02631e-13 -6.21202e-17 1.98785e-16 1.81217e-12 5.53814e-13 -9.54166e-15 2.08062e-11 -5.00813e-13 2.09917e-13 4.90681e-11 1.1893e-13 4.13472e-13 8.47371e-11 2.13097e-13 7.23576e-13 4.90605e-11 1.22451e-13 4.29375e-13 -7.73091 5.47488 -0.417314 4.90677e-11 1.18973e-13 4.07111e-13 -2.90554 0.965183 -0.102902 4.90562e-11 1.19668e-13 4.15858e-13 -10.2786 0.731801 -0.0259123 4.90704e-11 1.18476e-13 4.0393e-13 -2.22167 -0.733487 0.20892 -2.03217e-16 0.0 -3.88251e-19 0.288544 -2.74965 -0.0315106 -0.00677213 -0.571698 -0.0593195 -0.483463 3.32101 0.12237 2.03217e-16 0.0 3.88251e-19 -0.681392 -3.75931 0.0561644 0.0038743 1.25717 0.0320708 0.48715 2.50184 -0.106257
274.224 83.6144 -38.5928 -172.311 -84.2502 169.426 -1.25767 0.397184 -1.54984 0.848275 2.65445 -0.574058 -2.02959 2.83798 -2.16197 2.90037 4.39963 -5.49917 -0.0 0.0 0.0 -0.0 0.0 0.0 -2.94924e-15 7.91701e-14 2.66744e-14 17.3371 12.2394 -1.00822 -11.0739 -7.96336 12.9584 0.0633701 -5.58893 -0.772039 1.96461e-10 -8.20883e-11 5.17413e-11 3.38267e-10 -1.43839e-10 9.1513e-11 1.96466e-10 -8.20853e-11 5.1735e-11 7.73091 5.47488 0.417314 1.96461e-10 -8.20869e-11 5.17417e-11 2.90554 0.965183 0.102902 1.96468e-10 -8.20868e-11 5.17413e-11 10.2786 0.731801 0.0259123 1.96457e-10 -8.20879e-11 5.17502e-11 2.22167 -0.733487 -0.20892 -2.95315e-15 7.917e-14 2.64337e-14 -19.7849 11.5678 -0.919366 7.55 -4.5175 -10.3778 -0.0776234 -6.18732 0.85137 -3.39949e-11 -3.41824e-11 1.5333e-11 -5.8931e-11 -5.921e-11 2.53615e-11 -3.40102e-11 -3.41813e-11 1.53577e-11 -7.73091 5.47488 -0.417314 -3.39967e-11 -3.41836e-11 1.53282e-11 -2.90554 0.965183 -0.102902 -3.40055e-11 -3.41837e-11 1.53351e-11 -10.2786 0.731801 -0.0259123 -3.39914e-11 -3.41855e-11 1.53242e-11 -2.22167 -0.733487 0.20892 -2.03217e-16 0.0 -3.88251e-19 -0.299495 -5.96638 1.50112 0.0172524 10.119 0.115537 -0.718283 -2.98414 -1.57466 2.03217e-16 0.0 3.88251e-19 0.164201 -4.60696 1.52246 -0.0145648 8.55975 -0.092264 0.670316 -2.30724 1.60085
274.23 83.6146 -38.7785 -171.238 -84.1606 168.374 -2.30585 0.813607 -3.17671 1.87857 5.46296 -1.17093 -3.94141 5.82494 -4.46575 6.89122 8.91739 -11.4209 -0.0 0.0 0.0 -0.0 0.0 0.0 -1.18462e-14 1.64959e-13 5.63058e-14 36.1877 25.1524 -2.22747 -18.8553 -14.9613 27.3733 -0.0364588 -11.4958 -1.61327 3.50887e-10 -1.52377e-10 7.785e-11 6.04392e-10 -2.67314e-10 1.38852e-10 3.50891e-10 -1.52373e-10 7.78439e-11 7.73091 5.47488 0.417314 3.50887e-10 -1.52374e-10 7.78473e-11 2.90554 0.965183 0.102902 3.50895e-10 -1.52374e-10 7.78499e-11 10.2786 0.731801 0.0259123 3.50883e-10 -1.52375e-10 7.78616e-11 2.22167 -0.733487 -0.20892 -1.18534e-14 1.6496e-13 5.602e-14 -40.27 23.7629 -2.03405 13.7454 -8.76498 -21.5114 0.0447564 -12.7147 1.78379 -1.17631e-10 -6.88143e-11 3.88662e-11 -2.03847e-10 -1.19269e-10 6.48778e-11 -1.17654e-10 -6.88158e-11 3.89008e-11 -7.73091 5.47488 -0.417314 -1.17634e-10 -6.88169e-11 3.8863e-11 -2.90554 0.965183 -0.102902 -1.1764e-10 -6.88178e-11 3.88679e-11 -10.2786 0.731801 -0.0259123 -1.17626e-10 -6.88202e-11 3.8858e-11 -2.22167 -0.733487 0.20892 -2.03217e-16 0.0 -3.88251e-19 -0.743909 -9.35524 3.14257 -0.0326381 21.4256 0.318757 -1.37616 -9.63514 -3.40817 2.03217e-16 0.0 3.88251e-19 1.0975 -5.49372 3.08472 0.00166178 16.2796 -0.230795 1.17512 -7.3821 3.41897
274.265 83.6116 -38.9546 -170.581 -84.0792 167.764 -3.19307 1.19108 -4.63567 2.84471 7.96495 -1.71219 -5.44175 8.46519 -6.54962 11.2491 12.7077 -16.874 -0.0 0.0 0.0 -0.0 0.0 0.0 -1.87848e-14 2.37486e-13 7.97251e-14 53.5731 36.6668 -3.68602 -22.8585 -18.9441 41.1533 -0.278648 -16.7543 -2.40736 4.91253e-10 -2.46499e-10 1.54391e-10 8.45354e-10 -4.3193e-10 2.73109e-10 4.91257e-10 -2.46495e-10 1.54384e-10 7.73091 5.47488 0.417314 4.91253e-10 -2.46496e-10 1.54385e-10 2.90554 0.965183 0.102902 4.91262e-10 -2.46495e-10 1.54391e-10 10.2786 0.731801 0.0259123 4.9125e-10 -2.46497e-10 1.54405e-10 2.22167 -0.733487 -0.20892 -1.88015e-14 2.37487e-13 7.94005e-14 -58.0378 34.6637 -3.28576 17.9243 -11.774 -31.7793 0.344257 -18.5451 2.6784 -2.00121e-10 -1.02785e-10 4.5172e-11 -3.46267e-10 -1.78056e-10 7.46374e-11 -2.00151e-10 -1.02789e-10 4.52143e-11 -7.73091 5.47488 -0.417314 -2.00125e-10 -1.02789e-10 4.51704e-11 -2.90554 0.965183 -0.102902 -2.00129e-10 -1.0279e-10 4.51735e-11 -10.2786 0.731801 -0.0259123 -2.00115e-10 -1.02793e-10 4.51646e-11 -2.22167 -0.733487 0.20892 -2.03217e-16 0.0 -3.88251e-19 -0.948854 -12.3663 4.65003 -0.156782 31.4993 0.539325 -2.33929 -15.5379 -5.15061 2.03217e-16 0.0 3.88251e-19 1.98611 -6.28811 4.46747 0.0505023 23.1645 -0.36746 1.90961 -11.8819 5.12099
274.309 83.6275 -39.1138 -170.279 -84.0108 167.523 -3.72196 1.47435 -5.67408 3.53917 9.70358 -2.10053 -6.372 10.2851 -8.02295 14.7172 15.1489 -20.7946 -0.0 0.0 0.0 -0.0 0.0 0.0 -2.08272e-14 2.76858e-13 8.76143e-14 66.1705 44.7284 -5.16615 -24.4916 -20.045 51.204 -0.539418 -20.4041 -2.99668 5.96469e-10 -4.00206e-10 3.57011e-10 1.02341e-09 -6.99398e-10 6.24664e-10 5.96471e-10 -4.00202e-10 3.57005e-10 7.73091 5.47488 0.417314 5.96468e-10 -4.00202e-10 3.57005e-10 2.90554 0.965183 0.102902 5.96477e-10 -4.00202e-10 3.57012e-10 10.2786 0.731801 0.0259123 5.96465e-10 -4.00203e-10 3.57027e-10 2.22167 -0.733487 -0.20892 -2.08693e-14 2.76858e-13 8.72665e-14 -70.0084 42.3672 -4.38965 20.2483 -13.3274 -39.2863 0.673458 -22.649 3.36191 -2.79748e-10 -1.35104e-10 8.40939e-12 -4.82446e-10 -2.33666e-10 1.00052e-11 -2.79781e-10 -1.35108e-10 8.45391e-12 -7.73091 5.47488 -0.417314 -2.79753e-10 -1.35108e-10 8.40939e-12 -2.90554 0.965183 -0.102902 -2.79755e-10 -1.35109e-10 8.41098e-12 -10.2786 0.731801 -0.0259123 -2.79741e-10 -1.35112e-10 8.40303e-12 -2.22167 -0.733487 0.20892 -2.03217e-16 0.0 -3.88251e-19 -0.927523 -14.4632 5.74946 -0.30229 38.4919 0.73249 -3.24667 -19.6258 -6.47734 2.03217e-16 0.0 3.88251e-19 2.67069 -6.86338 5.3918 0.106748 27.9622 -0.474497 2.60675 -14.9857 6.42406
274.357 83.645 -39.2972 -169.34 -83.9224 166.647 -3.74912 1.63325 -6.12089 3.79998 10.3718 -2.26388 -6.70962 10.9885 -8.59896 16.1386 16.0308 -22.3367 -0.0 0.0 0.0 -0.0 0.0 0.0 -1.54552e-14 2.64066e-13 7.50661e-14 71.2523 47.9962 -6.07057 -25.062 -20.2103 55.5272 -0.662848 -21.8192 -3.236 6.49902e-10 -6.62729e-10 7.74738e-10 1.10817e-09 -1.15482e-09 1.34705e-09 6.49905e-10 -6.62724e-10 7.74731e-10 7.73091 5.47488 0.417314 6.49901e-10 -6.62726e-10 7.74733e-10 2.90554 0.965183 0.102902 6.4991e-10 -6.62725e-10 7.74741e-10 10.2786 0.731801 0.0259123 6.49897e-10 -6.62726e-10 7.74755e-10 2.22167 -0.733487 -0.20892 -1.55567e-14 2.64064e-13 7.47166e-14 -74.533 45.6351 -4.80262 21.1802 -13.9593 -42.6807 0.83914 -24.3537 3.66206 -3.64506e-10 -1.69708e-10 -1.0605e-10 -6.25107e-10 -2.92662e-10 -1.88968e-10 -3.64535e-10 -1.69712e-10 -1.06012e-10 -7.73091 5.47488 -0.417314 -3.64511e-10 -1.69712e-10 -1.06048e-10 -2.90554 0.965183 -0.102902 -3.64514e-10 -1.69712e-10 -1.06047e-10 -10.2786 0.731801 -0.0259123 -3.64501e-10 -1.69715e-10 -1.06054e-10 -2.22167 -0.733487 0.20892 -2.03217e-16 0.0 -3.88251e-19 -0.735772 -15.3014 6.24384 -0.375139 41.168 0.819927 -3.6806 -21.2145 -7.07737 2.03217e-16 0.0 3.88251e-19 3.04689 -7.14711 5.66627 0.1347 29.8493 -0.52061 2.96746 -16.1694 7.09056
